<?xml version="1.0" encoding="utf-8"?>
<!-- Generator: Adobe Illustrator 16.0.0, SVG Export Plug-In . SVG Version: 6.00 Build 0)  -->
<!DOCTYPE svg PUBLIC "-//W3C//DTD SVG 1.1//EN" "http://www.w3.org/Graphics/SVG/1.1/DTD/svg11.dtd">
<svg version="1.1" id="Layer_1" xmlns="http://www.w3.org/2000/svg" xmlns:xlink="http://www.w3.org/1999/xlink" x="0px" y="0px"
	 width="16px" height="15.99px" viewBox="0 0 16 15.99" enable-background="new 0 0 16 15.99" xml:space="preserve">
<path fill-rule="evenodd" clip-rule="evenodd" fill="#48B5F5" d="M8,15c-3.98,0-6.97-1.95-7-3v-0.02V9.84
	c1.36,1.23,3.98,2.15,7,2.15c3.04,0,5.64-0.92,7-2.14v2.14C15,13.06,11.97,15,8,15z M1,8V5.84c1.36,1.23,3.98,2.15,7,2.15
	c3.04,0,5.64-0.92,7-2.14v2.14C15,9.06,11.97,11,8,11C4.02,11,1,9.08,1,8z M1,4.01V3.99C1.02,3.76,1.65,3,1.65,3
	C2.74,2.03,5.11,0.99,8,0.99c2.9,0,5.31,1.04,6.39,2.01c0,0,0.59,0.77,0.61,0.99v0.02C14.97,5.09,11.95,7,8,7C4.02,7,1,5.08,1,4.01z
	 M0,4v7.98c0,2.02,3.56,4.01,8,4.01c4.47,0,8-1.99,8-4V4.01V4c0-1-1-1.86-1-1.86C13.64,0.92,11.04,0,8,0C4.98,0,2.36,0.93,1,2.15
	C1,2.15,0,3,0,4z"/>
</svg>
