<svg xmlns="http://www.w3.org/2000/svg" xmlns:xlink="http://www.w3.org/1999/xlink" width="94" height="85" viewBox="0 0 94 85"><defs><path id="p620b" d="M689.8 2499.12l.26 3.95c2.47-.57 4.75-6.03 4.75-9.22v-2.37c0-1.47-.32-2.97-.8-3.95-2.4 1.61-4.62 7.16-4.21 11.59"/><path id="p620c" d="M747.76 2500.17c-1.23-5.27-6.05-11.94-11.33-13.17.14 6.23 5.94 11.91 11.33 13.17"/><path id="p620d" d="M746.96 2490.43v3.69c0 2.84 2.36 8.75 4.7 8.95l.3-2.9v-1.84c0-4.27-1.68-9.1-4.2-10.8-.33.67-.8 1.92-.8 2.9"/><path id="p620e" d="M694.02 2500.17c5.37-1.25 11.19-6.96 11.33-13.17-5.49 1.28-10.07 7.77-11.33 13.17"/><path id="p620f" d="M688.49 2508.6c5.4 0 14.34-6.25 15.28-10.27-3.27 0-7.5 1.84-9.49 3.16-3.05 2.04-4.06 3.83-5.79 7.11"/><path id="p620g" d="M752.76 2498.06v2.9c0 3.38 1.56 9.02 3.42 10.27.53-.99 1.59-3.56 1.59-5v-2.1c0-3.1-2.08-9.1-3.7-10.28-.42.8-1.31 3.04-1.31 4.21"/><path id="p620h" d="M753.29 2508.6c-2.75-5.19-7.51-10.27-15.28-10.27.94 4.05 9.83 10.27 15.28 10.27"/><path id="p620i" d="M684.01 2504.12v2.1c0 1.45 1.06 4.02 1.58 5.01 1.68-1.12 3.42-6.77 3.42-9.74v-3.43c0-1.37-.75-3.1-1.31-3.95-1.75 1.17-3.69 6.94-3.69 10"/><path id="p620j" d="M757.23 2514.66l-.06.27.32 2.89c2.24-.6 5.54-6.67 5.54-9.75v-5c0-.71-.13-.73-.27-1.32-3.25 2.18-5.53 7.43-5.53 12.9"/><path id="p620k" d="M757.23 2527.83c4.05-.95 8.16-9.12 8.16-14.49-5.11 1.2-8.16 7.94-8.16 14.49"/><path id="p620l" d="M678.74 2503.6v4.47c0 3.08 3.26 9.14 5.5 9.74l.3-2.36v-1.85c0-4.56-2.76-10-5.54-11.85-.07.82-.26.94-.26 1.84"/><path id="p620m" d="M748.54 2508.86c0 4.89 4.35 12.8 8.16 13.7v-1.58c0-7.86-8.16-14.03-8.16-12.12"/><path id="p620n" d="M685.06 2520.97v1.59c2.04-.48 4.65-3.53 5.54-5.27.66-1.32 2.8-6.3 2.63-8.19-.23-2.65-8.17 4.74-8.17 11.87"/><path id="p620o" d="M684.54 2527.83c0-6.55-3.05-13.3-8.17-14.49 0 5.36 4.11 13.54 8.17 14.49"/><path id="p620a" d="M755.39 2523.09h12.38v12.12h-12.38z"/><path id="p620q" d="M755.39 2535.2c2.92-.24 5.88-2.84 7.57-4.54 2.85-2.84 3.05-3.9 4.81-7.57-2.86.24-6.18 2.62-7.84 4.28-3.3 3.32-2.62 3.83-4.54 7.84"/><path id="p620r" d="M674 2523.09c1.4 2.92 2.5 5.52 4.67 7.7 1.5 1.5 5.2 4.2 7.71 4.42-1.94-4.04-1.2-4.5-4.54-7.84-1.66-1.66-4.97-4.04-7.84-4.28"/><path id="p620s" d="M686.38 2529.14c0 3 1.02 7.86 3.16 8.43.58-2.48 1.32-3.36 1.32-6.85v-2.36c0-2.74-1-5.5-2.64-6.59-1.08 2.05-1.84 3.43-1.84 6.58z"/><path id="p620t" d="M752.23 2537.57c2.14-.57 3.16-5.42 3.16-8.43v-1.84c0-2.38-1.01-3.96-1.85-5.53-1.63 1.1-2.63 3.85-2.63 6.58v3.96c0 2.05.91 3.54 1.32 5.26"/><path id="p620u" d="M742.22 2550.48c4.5-1.2 7.64-9.75 7.64-16.07-3.46 2.32-7.64 8.1-7.64 13.96z"/><path id="p620v" d="M748.28 2545.74c5.38 0 13.32-6.81 13.7-11.33-6.67 0-11.3 6.77-13.7 11.33"/><path id="p620w" d="M693.49 2545.74c-2.33-4.4-7.3-11.33-13.7-11.33.6 4.7 8.2 11.33 13.7 11.33"/><path id="p620x" d="M691.91 2534.41c0 6.35 3.14 14.87 7.64 16.07v-2.1c0-5.84-4.2-11.67-7.64-13.97"/><path id="p620y" d="M693.75 2551.27h2.64c.7 0 .72-.12 1.32-.26-.74-2.76-9.3-6.06-13.44-6.06h-.26l-4.48.26c1.59 3.02 9.24 6.06 14.22 6.06"/><path id="p620z" d="M747.75 2551.27c4.7 0 13.73-3.24 14.49-6.06l-3.95-.33c-4.5-.36-13.5 3.42-14.23 6.12.6.14.6.27 1.32.27z"/><path id="p620A" d="M695.6 2552.32c-2.91 0-7.05.97-8.17 2.63 4.06.95 6 2.11 11.59 2.11h.53c2.16 0 5.72-1.08 6.58-2.37-2.36-1.58-6.28-2.37-10.27-2.37z"/><path id="p620B" d="M735.37 2554.7c.95 1.3 4.74 2.36 7.11 2.36h1.32c4.84 0 6.95-1.27 10.54-2.1-1.05-1.56-5.23-2.64-7.9-2.64h-2.38c-2.88 0-6.78 1.36-8.69 2.37"/><path id="p620C" d="M700.87 2545.48c4.15 7.84 5.13 8.53 12.9 12.64-.45-5.46-7.34-12.52-12.9-12.64"/><path id="p620D" d="M728 2558.11c7.76-4.1 8.77-4.82 12.9-12.64-5.6.13-12.45 7.2-12.9 12.64"/><path id="p620E" d="M704.55 2561.55c2.1 0 6.81-1.13 8.17-1.85l6.57 2.14c-.9 1.2-6.9 3.9-9.2 7.35l2.04 2.17c1.15-2.12 6.33-8.5 8.75-8.5 3.04 0 7.49 7.36 8.96 8.43l2.05-1.9c-1.07-1.61-2.76-2.9-4.35-4.23-1.08-.9-4.7-2.82-5.08-3.35 1.21-.28 5.81-2.1 6.59-2.1.9 0 5.2 1.84 8.69 1.84h2.1c2.94 0 3.9-.55 6.07-1.06-1.1-1.64-6.27-3.42-8.96-3.42h-2.1c-1.32 0-12.87 3.63-13.97 4.21-1.91-1-4.58-1.68-7.1-2.12-2.16-.38-3.48-2.09-7.12-2.09h-1.06c-3.24 0-8.48 1.55-9.74 3.42 2.17.51 3.12 1.06 6.06 1.06z"/><clipPath id="p620p"><use xlink:href="#p620a"/></clipPath></defs><g><g transform="translate(-674 -2487)"><g><g><use fill="#fff" xlink:href="#p620b"/></g><g><use fill="#fff" xlink:href="#p620c"/></g><g><use fill="#fff" xlink:href="#p620d"/></g><g><use fill="#fff" xlink:href="#p620e"/></g><g><use fill="#fff" xlink:href="#p620f"/></g><g><use fill="#fff" xlink:href="#p620g"/></g><g><use fill="#fff" xlink:href="#p620h"/></g><g><use fill="#fff" xlink:href="#p620i"/></g><g><use fill="#fff" xlink:href="#p620j"/></g><g><use fill="#fff" xlink:href="#p620k"/></g><g><use fill="#fff" xlink:href="#p620l"/></g><g><use fill="#fff" xlink:href="#p620m"/></g><g><use fill="#fff" xlink:href="#p620n"/></g><g><use fill="#fff" xlink:href="#p620o"/></g><g><g/><g clip-path="url(#p620p)"><use fill="#fff" xlink:href="#p620q"/></g></g><g><use fill="#fff" xlink:href="#p620r"/></g><g><use fill="#fff" xlink:href="#p620s"/></g><g><use fill="#fff" xlink:href="#p620t"/></g><g><use fill="#fff" xlink:href="#p620u"/></g><g><use fill="#fff" xlink:href="#p620v"/></g><g><use fill="#fff" xlink:href="#p620w"/></g><g><use fill="#fff" xlink:href="#p620x"/></g><g><use fill="#fff" xlink:href="#p620y"/></g><g><use fill="#fff" xlink:href="#p620z"/></g><g><use fill="#fff" xlink:href="#p620A"/></g><g><use fill="#fff" xlink:href="#p620B"/></g><g><use fill="#fff" xlink:href="#p620C"/></g><g><use fill="#fff" xlink:href="#p620D"/></g><g><use fill="#fff" xlink:href="#p620E"/></g></g><g><g fill="#fff" font-family="'Whitney','Whitney-Bold'" font-size="20" font-style="none" font-weight="700"><text dominant-baseline="text-before-edge" font-family="Helvetica, Arial, sans-serif" transform="translate(698.5 2513)"><tspan letter-spacing=".57">2015</tspan></text></g></g></g></g></svg>