<svg xmlns="http://www.w3.org/2000/svg" width="308.345" height="348.146" viewBox="0 0 308.345 348.146"><path fill="#F6A21D" d="M0 319.127h13v13H0z"/><path fill="#EE2667" d="M101 319.127h13v13h-13z"/><path fill="#F6A21D" d="M295 319.127h13v13h-13z"/><path fill="#EE2667" d="M0 22.127h13v13H0z"/><path fill="#F6A21D" d="M295 22.127h13v13h-13z"/><path fill="#EE2667" d="M.891 122.146h118.333v13H.891z"/><path fill="#F6A21D" d="M183.225 219.146h124.999v13H183.225zM106.687 19.463L128.039 0h6.23v52.506h-13.861V25.553l-13.722 12.531-13.791-12.461v26.883H79.033V0h6.23l21.424 19.463zm104.998 13.721v19.322h-13.651V33.184L178.852 0h15.892l10.081 17.502L214.976 0h15.892l-19.183 33.184z"/><path fill="#EE2667" d="M196.997 100.641v18.692h16.661v-18.692h13.792v52.506h-13.792v-20.022h-16.661v20.022h-13.792v-52.506h13.792zm78.724 0h32.624v11.411h-18.832v8.541h16.661v11.621h-16.661v9.661h18.832v11.271h-32.624v-52.505zM.649 197.214h13.792v38.645h18.901v13.861H.649v-52.506zm101.58 0h13.791v52.506h-13.791v-52.506zm127.881 98.427l-17.502 25.133 19.252 27.373h-16.802l-10.852-15.401-10.921 15.401h-16.802l19.252-27.373-17.502-25.133h16.802l9.171 13.092 9.102-13.092h16.802z"/></svg>