<svg xmlns="http://www.w3.org/2000/svg" xmlns:xlink="http://www.w3.org/1999/xlink" width="27" height="24" viewBox="0 0 27 24"><defs><path id="8fyka" d="M1230.83 3725.8l-3.85-.06.02.02.1-7.73-.02.03 3.85.03-.1 7.71"/><path id="8fykb" d="M1207.9 3717.8l.04-3.8 7.66.1-.05 3.8.03-.02-7.71-.1z"/><path id="8fykc" d="M1219.41 3717.95l.05-3.81 7.66.1-.05 3.81.02-.02-7.7-.1z"/><path id="8fykd" d="M1207.8 3725.5l-3.8-.05.1-7.69 3.8.05-.03-.03-.1 7.73z"/><path id="8fyke" d="M1215.55 3717.9l3.87.05-.02-.02-.05 3.8-3.82-.04.05-3.81z"/><path id="8fykf" d="M1211.6 3729.4l-3.85-.06.05-3.85-.02.02 3.84.05-.05 3.86z"/><path id="8fykg" d="M1226.98 3725.74l-.05 3.85-3.84-.05.02.03.05-3.86 3.84.05z"/><path id="8fykh" d="M1215.38 3733.3l-3.84-.05.05-3.85-.02.02 3.84.05-.05 3.86z"/><path id="8fyki" d="M1223.09 3729.55l-.05 3.85-3.84-.05.02.02.05-3.85 3.84.05z"/><path id="8fykj" d="M1219.2 3733.35l-.05 3.8-3.82-.04.05-3.81-.03.02 3.87.05z"/></defs><g><g transform="translate(-1204 -3714)"><g><use xlink:href="#8fyka"/></g><g><use xlink:href="#8fykb"/></g><g><use xlink:href="#8fykc"/></g><g><use xlink:href="#8fykd"/></g><g><use xlink:href="#8fyke"/></g><g><use xlink:href="#8fykf"/></g><g><use xlink:href="#8fykg"/></g><g><use xlink:href="#8fykh"/></g><g><use xlink:href="#8fyki"/></g><g><use xlink:href="#8fykj"/></g></g></g></svg>