
<svg width="76px" height="41px" viewBox="0 0 76 41" version="1.1" xmlns="http://www.w3.org/2000/svg" xmlns:xlink="http://www.w3.org/1999/xlink">
    <!-- Generator: Sketch 45 (43475) - http://www.bohemiancoding.com/sketch -->
    <desc>Created with Sketch.</desc>
    <defs>
        <polygon id="path-1" points="0 41 75.249 41 75.249 0 0 0"></polygon>
    </defs>
    <g id="Page-1" stroke="none" stroke-width="1" fill="none" fill-rule="evenodd">
        <g id="Main-page_2d-edition" transform="translate(-1164.000000, -3032.000000)">
            <g id="HOW_TO_DO_TEST" transform="translate(99.000000, 2845.000000)">
                <g id="Page-1" transform="translate(1065.000000, 187.000000)">
                    <path d="M17.2487,13.5 L75.2487,13.5 L17.2487,13.5 Z" id="Stroke-1" stroke="#000000"></path>
                    <path d="M25.5612,18.4062 C25.5612,18.9072 25.1552,19.3122 24.6552,19.3122 C24.1542,19.3122 23.7492,18.9072 23.7492,18.4062 C23.7492,17.9052 24.1542,17.5002 24.6552,17.5002 C25.1552,17.5002 25.5612,17.9052 25.5612,18.4062 Z" id="Stroke-3" stroke="#000000"></path>
                    <path d="M32.8112,18.4062 C32.8112,18.9072 32.4052,19.3122 31.9052,19.3122 C31.4042,19.3122 30.9992,18.9072 30.9992,18.4062 C30.9992,17.9052 31.4042,17.5002 31.9052,17.5002 C32.4052,17.5002 32.8112,17.9052 32.8112,18.4062 Z" id="Stroke-5" stroke="#000000"></path>
                    <path d="M40.0612,18.4062 C40.0612,18.9072 39.6552,19.3122 39.1552,19.3122 C38.6542,19.3122 38.2492,18.9072 38.2492,18.4062 C38.2492,17.9052 38.6542,17.5002 39.1552,17.5002 C39.6552,17.5002 40.0612,17.9052 40.0612,18.4062 Z" id="Stroke-7" stroke="#000000"></path>
                    <path d="M47.3112,18.4062 C47.3112,18.9072 46.9052,19.3122 46.4052,19.3122 C45.9042,19.3122 45.4992,18.9072 45.4992,18.4062 C45.4992,17.9052 45.9042,17.5002 46.4052,17.5002 C46.9052,17.5002 47.3112,17.9052 47.3112,18.4062 Z" id="Stroke-9" stroke="#000000"></path>
                    <path d="M54.5612,18.4062 C54.5612,18.9072 54.1552,19.3122 53.6552,19.3122 C53.1542,19.3122 52.7492,18.9072 52.7492,18.4062 C52.7492,17.9052 53.1542,17.5002 53.6552,17.5002 C54.1552,17.5002 54.5612,17.9052 54.5612,18.4062 Z" id="Stroke-11" stroke="#000000"></path>
                    <path d="M61.8112,18.4062 C61.8112,18.9072 61.4052,19.3122 60.9052,19.3122 C60.4042,19.3122 59.9992,18.9072 59.9992,18.4062 C59.9992,17.9052 60.4042,17.5002 60.9052,17.5002 C61.4052,17.5002 61.8112,17.9052 61.8112,18.4062" id="Fill-13" fill="#000000"></path>
                    <path d="M61.8112,18.4062 C61.8112,18.9072 61.4052,19.3122 60.9052,19.3122 C60.4042,19.3122 59.9992,18.9072 59.9992,18.4062 C59.9992,17.9052 60.4042,17.5002 60.9052,17.5002 C61.4052,17.5002 61.8112,17.9052 61.8112,18.4062 Z" id="Stroke-15" stroke="#000000"></path>
                    <path d="M69.0612,18.4062 C69.0612,18.9072 68.6552,19.3122 68.1552,19.3122 C67.6542,19.3122 67.2492,18.9072 67.2492,18.4062 C67.2492,17.9052 67.6542,17.5002 68.1552,17.5002 C68.6552,17.5002 69.0612,17.9052 69.0612,18.4062" id="Fill-17" fill="#000000"></path>
                    <path d="M69.0612,18.4062 C69.0612,18.9072 68.6552,19.3122 68.1552,19.3122 C67.6542,19.3122 67.2492,18.9072 67.2492,18.4062 C67.2492,17.9052 67.6542,17.5002 68.1552,17.5002 C68.6552,17.5002 69.0612,17.9052 69.0612,18.4062 Z" id="Stroke-19" stroke="#000000"></path>
                    <path d="M25.5612,24.75 C25.5612,25.251 25.1552,25.656 24.6552,25.656 C24.1542,25.656 23.7492,25.251 23.7492,24.75 C23.7492,24.249 24.1542,23.844 24.6552,23.844 C25.1552,23.844 25.5612,24.249 25.5612,24.75 Z" id="Stroke-21" stroke="#000000"></path>
                    <path d="M32.8112,24.75 C32.8112,25.251 32.4052,25.656 31.9052,25.656 C31.4042,25.656 30.9992,25.251 30.9992,24.75 C30.9992,24.249 31.4042,23.844 31.9052,23.844 C32.4052,23.844 32.8112,24.249 32.8112,24.75 Z" id="Stroke-23" stroke="#000000"></path>
                    <path d="M40.0612,24.75 C40.0612,25.251 39.6552,25.656 39.1552,25.656 C38.6542,25.656 38.2492,25.251 38.2492,24.75 C38.2492,24.249 38.6542,23.844 39.1552,23.844 C39.6552,23.844 40.0612,24.249 40.0612,24.75 Z" id="Stroke-25" stroke="#000000"></path>
                    <path d="M47.3112,24.75 C47.3112,25.251 46.9052,25.656 46.4052,25.656 C45.9042,25.656 45.4992,25.251 45.4992,24.75 C45.4992,24.249 45.9042,23.844 46.4052,23.844 C46.9052,23.844 47.3112,24.249 47.3112,24.75 Z" id="Stroke-27" stroke="#000000"></path>
                    <path d="M54.5612,24.75 C54.5612,25.251 54.1552,25.656 53.6552,25.656 C53.1542,25.656 52.7492,25.251 52.7492,24.75 C52.7492,24.249 53.1542,23.844 53.6552,23.844 C54.1552,23.844 54.5612,24.249 54.5612,24.75 Z" id="Stroke-29" stroke="#000000"></path>
                    <path d="M61.8112,24.75 C61.8112,25.251 61.4052,25.656 60.9052,25.656 C60.4042,25.656 59.9992,25.251 59.9992,24.75 C59.9992,24.249 60.4042,23.844 60.9052,23.844 C61.4052,23.844 61.8112,24.249 61.8112,24.75" id="Fill-31" fill="#000000"></path>
                    <path d="M61.8112,24.75 C61.8112,25.251 61.4052,25.656 60.9052,25.656 C60.4042,25.656 59.9992,25.251 59.9992,24.75 C59.9992,24.249 60.4042,23.844 60.9052,23.844 C61.4052,23.844 61.8112,24.249 61.8112,24.75 Z" id="Stroke-33" stroke="#000000"></path>
                    <path d="M69.0612,24.75 C69.0612,25.251 68.6552,25.656 68.1552,25.656 C67.6542,25.656 67.2492,25.251 67.2492,24.75 C67.2492,24.249 67.6542,23.844 68.1552,23.844 C68.6552,23.844 69.0612,24.249 69.0612,24.75" id="Fill-35" fill="#000000"></path>
                    <path d="M69.0612,24.75 C69.0612,25.251 68.6552,25.656 68.1552,25.656 C67.6542,25.656 67.2492,25.251 67.2492,24.75 C67.2492,24.249 67.6542,23.844 68.1552,23.844 C68.6552,23.844 69.0612,24.249 69.0612,24.75 Z" id="Stroke-37" stroke="#000000"></path>
                    <path d="M25.5612,31.0938 C25.5612,31.5948 25.1552,31.9998 24.6552,31.9998 C24.1542,31.9998 23.7492,31.5948 23.7492,31.0938 C23.7492,30.5928 24.1542,30.1878 24.6552,30.1878 C25.1552,30.1878 25.5612,30.5928 25.5612,31.0938 Z" id="Stroke-39" stroke="#000000"></path>
                    <path d="M32.8112,31.0938 C32.8112,31.5948 32.4052,31.9998 31.9052,31.9998 C31.4042,31.9998 30.9992,31.5948 30.9992,31.0938 C30.9992,30.5928 31.4042,30.1878 31.9052,30.1878 C32.4052,30.1878 32.8112,30.5928 32.8112,31.0938 Z" id="Stroke-41" stroke="#000000"></path>
                    <path d="M40.0612,31.0938 C40.0612,31.5948 39.6552,31.9998 39.1552,31.9998 C38.6542,31.9998 38.2492,31.5948 38.2492,31.0938 C38.2492,30.5928 38.6542,30.1878 39.1552,30.1878 C39.6552,30.1878 40.0612,30.5928 40.0612,31.0938 Z" id="Stroke-43" stroke="#000000"></path>
                    <path d="M47.3112,31.0938 C47.3112,31.5948 46.9052,31.9998 46.4052,31.9998 C45.9042,31.9998 45.4992,31.5948 45.4992,31.0938 C45.4992,30.5928 45.9042,30.1878 46.4052,30.1878 C46.9052,30.1878 47.3112,30.5928 47.3112,31.0938 Z" id="Stroke-45" stroke="#000000"></path>
                    <path d="M54.5612,31.0938 C54.5612,31.5948 54.1552,31.9998 53.6552,31.9998 C53.1542,31.9998 52.7492,31.5948 52.7492,31.0938 C52.7492,30.5928 53.1542,30.1878 53.6552,30.1878 C54.1552,30.1878 54.5612,30.5928 54.5612,31.0938 Z" id="Stroke-47" stroke="#000000"></path>
                    <path d="M61.8112,31.0938 C61.8112,31.5948 61.4052,31.9998 60.9052,31.9998 C60.4042,31.9998 59.9992,31.5948 59.9992,31.0938 C59.9992,30.5928 60.4042,30.1878 60.9052,30.1878 C61.4052,30.1878 61.8112,30.5928 61.8112,31.0938" id="Fill-49" fill="#000000"></path>
                    <path d="M61.8112,31.0938 C61.8112,31.5948 61.4052,31.9998 60.9052,31.9998 C60.4042,31.9998 59.9992,31.5948 59.9992,31.0938 C59.9992,30.5928 60.4042,30.1878 60.9052,30.1878 C61.4052,30.1878 61.8112,30.5928 61.8112,31.0938 Z" id="Stroke-51" stroke="#000000"></path>
                    <path d="M69.0612,31.0938 C69.0612,31.5948 68.6552,31.9998 68.1552,31.9998 C67.6542,31.9998 67.2492,31.5948 67.2492,31.0938 C67.2492,30.5928 67.6542,30.1878 68.1552,30.1878 C68.6552,30.1878 69.0612,30.5928 69.0612,31.0938" id="Fill-53" fill="#000000"></path>
                    <path d="M69.0612,31.0938 C69.0612,31.5948 68.6552,31.9998 68.1552,31.9998 C67.6542,31.9998 67.2492,31.5948 67.2492,31.0938 C67.2492,30.5928 67.6542,30.1878 68.1552,30.1878 C68.6552,30.1878 69.0612,30.5928 69.0612,31.0938 Z" id="Stroke-55" stroke="#000000"></path>
                    <polygon id="Stroke-57" stroke="#000000" points="59.7487 5.5 59.7487 10.5 55.7487 10.5 55.7487 5.5 35.7487 5.5 35.7487 10.5 31.7487 10.5 31.7487 5.5 17.7487 5.5 17.7487 36.5 74.7487 36.5 74.7487 5.5"></polygon>
                    <path d="M33.7487,0 L33.7487,9" id="Stroke-59" stroke="#000000"></path>
                    <path d="M57.7487,0 L57.7487,9" id="Stroke-61" stroke="#000000"></path>
                    <path d="M17.2487,38.5 L75.2487,38.5" id="Stroke-63" stroke="#000000"></path>
                    <mask id="mask-2" fill="white">
                        <use xlink:href="#path-1"></use>
                    </mask>
                    <g id="Clip-66"></g>
                    <polygon id="Fill-65" fill="#000000" mask="url(#mask-2)" points="17.249 41 75.249 41 75.249 40 17.249 40"></polygon>
                    <path d="M17.7487,36 L17.7487,41" id="Stroke-67" stroke="#000000" mask="url(#mask-2)"></path>
                    <path d="M74.7487,36 L74.7487,41" id="Stroke-68" stroke="#000000" mask="url(#mask-2)"></path>
                    <polygon id="Stroke-69" stroke="#000000" mask="url(#mask-2)" points="0.5 26.341 10.665 26.341 10.665 16.176 0.5 16.176"></polygon>
                    <path d="M2.6356,18.3963 L4.9846,23.2373 C5.1736,23.6263 5.7286,23.6233 5.9126,23.2323 L11.0066,12.4163" id="Stroke-70" stroke="#000000" mask="url(#mask-2)"></path>
                </g>
            </g>
        </g>
    </g>
</svg>