<svg xmlns="http://www.w3.org/2000/svg" xmlns:xlink="http://www.w3.org/1999/xlink" width="101" height="66" viewBox="0 0 101 66"><defs><path id="4u5va" d="M1121 2508.14h28.09v44.82H1121z"/><path id="4u5ve" d="M1149.09 2508.14h-24.65c-.7 0-1.34.21-1.88.57a3.34 3.34 0 0 0-1.56 2.83v38.07c0 1.85 1.5 3.35 3.35 3.35h.57v-33.5a6.85 6.85 0 0 1 6.85-6.84h15.12z"/><path id="4u5vb" d="M1150.58 2492h70.52v64.18h-70.52z"/><path id="4u5vg" d="M1167.13 2508.2a6.96 6.96 0 0 1 11.95 0zm-2.34-15.84a3.67 3.67 0 0 0-4.92 1.74s-8.95 17.9-9.29 18.52h41.27a6.85 6.85 0 0 1 6.42 4.48l16.05 7.67-1.36 2.84-14.26-6.81v5.72l12.03 5.75-1.36 2.84-10.67-5.1v5.73l8.45 4.03-1.36 2.85-7.09-3.4v5.73l4.86 2.32-1.36 2.85-3.5-1.68v5.25c0 .33-.03.65-.08.97l2.43 1.16a3.7 3.7 0 0 0 4.93-1.74l14.76-30.87a3.7 3.7 0 0 0-1.74-4.93z"/><path id="4u5vc" d="M1121 2557.63h100.1V2492H1121z"/><path id="4u5vi" d="M1167.19 2523.9h23.5v3.15h-23.5zm0 8.31h23.5v3.15h-23.5zm0 8.32h23.5v3.15h-23.5zm0 8.3h23.5v3.16h-23.5zm-35.36 3.26h.13c1.35-6.57 5.69-11.85 11.27-13.77l4.61 5.44 4.76-5.46c5.53 1.91 9.74 7.19 10.92 13.75zm23.02-22.15a6.96 6.96 0 1 1-13.92 0 6.96 6.96 0 0 1 13.92 0zm-22.82-13.92a3.7 3.7 0 0 0-3.7 3.7v34.22a3.7 3.7 0 0 0 3.7 3.7h60.08a3.7 3.7 0 0 0 3.7-3.7v-34.22a3.7 3.7 0 0 0-3.7-3.7z"/><clipPath id="4u5vd"><use xlink:href="#4u5va"/></clipPath><clipPath id="4u5vf"><use xlink:href="#4u5vb"/></clipPath><clipPath id="4u5vh"><use xlink:href="#4u5vc"/></clipPath></defs><g><g transform="translate(-1121 -2492)"><g><g/><g clip-path="url(#4u5vd)"><use fill="#fefefe" xlink:href="#4u5ve"/></g></g><g><g/><g clip-path="url(#4u5vf)"><use fill="#fefefe" xlink:href="#4u5vg"/></g></g><g/><g clip-path="url(#4u5vh)"><use fill="#fefefe" xlink:href="#4u5vi"/></g></g></g></svg>