
<svg width="81px" height="43px" viewBox="0 0 81 43" version="1.1" xmlns="http://www.w3.org/2000/svg" xmlns:xlink="http://www.w3.org/1999/xlink">
    <!-- Generator: Sketch 45 (43475) - http://www.bohemiancoding.com/sketch -->
    <desc>Created with Sketch.</desc>
    <defs>
        <polygon id="path-1" points="0 42.1619 80.728 42.1619 80.728 -0.0001 0 -0.0001"></polygon>
    </defs>
    <g id="Page-1" stroke="none" stroke-width="1" fill="none" fill-rule="evenodd">
        <g id="Main-page_2d-edition" transform="translate(-518.000000, -3025.000000)">
            <g id="HOW_TO_DO_TEST" transform="translate(99.000000, 2845.000000)">
                <g id="Page-1" transform="translate(419.000000, 180.000000)">
                    <path d="M0.5002,18.4985 L7.9052,18.4985 L0.5002,18.4985 Z" id="Stroke-1" stroke="#000000"></path>
                    <path d="M0.5002,20.038 L7.9052,20.038" id="Stroke-3" stroke="#000000"></path>
                    <path d="M0.5002,21.5775 L7.9052,21.5775" id="Stroke-5" stroke="#000000"></path>
                    <path d="M0.5002,23.117 L7.9052,23.117" id="Stroke-7" stroke="#000000"></path>
                    <path d="M0.5002,24.6565 L7.9052,24.6565" id="Stroke-9" stroke="#000000"></path>
                    <path d="M75.4588,41.6385 L0.5028,41.6615 L0.4998,32.1215 L0.9798,32.1215 L75.4558,32.0985 C78.0908,32.0975 80.2268,34.2325 80.2278,36.8665 L80.2278,36.8665 C80.2288,39.5015 78.0938,41.6375 75.4588,41.6385 Z" id="Stroke-11" stroke="#000000"></path>
                    <path d="M1.1329,37.5815 C1.1199,37.5205 1.1289,37.4345 1.0909,37.4035 C0.5239,36.9255 0.8499,36.2885 0.8089,35.7255 C0.7979,35.5745 1.0019,35.4075 1.1069,35.2485 C1.4249,35.3395 1.7419,35.4345 2.0609,35.5185 C2.1069,35.5305 2.1929,35.5005 2.2159,35.4635 C2.2419,35.4215 2.2399,35.3285 2.2099,35.2925 C1.9489,34.9815 1.9539,34.6815 2.2149,34.3735 C2.2439,34.3385 2.2399,34.2425 2.2119,34.2035 C2.1859,34.1675 2.0999,34.1465 2.0519,34.1595 C1.7319,34.2425 1.4149,34.3365 1.0969,34.4265 C0.6739,33.9515 0.8019,33.3705 0.7789,32.8155 C0.7679,32.5655 0.8639,32.4805 1.1049,32.4975 C1.3229,32.5125 1.5419,32.4995 1.7609,32.4995 C2.5399,32.5005 2.8349,32.9995 2.4829,33.7095 C2.4539,33.7675 2.4519,33.8525 2.4719,33.9145 C2.4799,33.9395 2.6049,33.9645 2.6319,33.9405 C3.0089,33.6025 3.3329,33.7295 3.6529,34.0295 C3.7029,34.0755 3.8009,34.0695 3.8769,34.0885 L3.8679,34.0795 C4.2139,34.5635 4.2789,35.0525 3.8919,35.5495 C3.8839,35.5605 3.8849,35.5795 3.8809,35.5945 C3.7899,35.6145 3.6659,35.6045 3.6139,35.6605 C3.3059,35.9905 2.9939,36.0405 2.6399,35.7365 C2.6089,35.7105 2.5269,35.7455 2.4689,35.7515 C2.4809,35.8325 2.4679,35.9325 2.5099,35.9915 C2.7079,36.2655 2.6979,36.5245 2.5169,36.8055 C2.4649,36.8865 2.4849,37.0135 2.4719,37.1195 C2.5629,37.0875 2.6749,37.0775 2.7429,37.0175 C2.9959,36.7925 3.2219,36.7895 3.4799,37.0195 C3.5819,37.1115 3.7449,37.1345 3.8809,37.1885 C3.9519,37.3515 4.0519,37.5085 4.0869,37.6795 C4.1269,37.8715 4.1419,38.0815 4.1039,38.2725 C4.0669,38.4565 3.9499,38.6255 3.8679,38.8005 L3.8779,38.7915 C3.7709,38.8095 3.6319,38.7905 3.5639,38.8515 C3.2709,39.1115 2.9929,39.1255 2.6829,38.8865 C2.6339,38.8485 2.5209,38.8945 2.4369,38.9015 C2.4579,38.9835 2.4569,39.0825 2.5039,39.1455 C2.7079,39.4195 2.7079,39.6795 2.5039,39.9525 C2.4569,40.0155 2.4579,40.1145 2.4369,40.1975 C2.5329,40.1945 2.6539,40.2295 2.7209,40.1835 C3.0059,39.9915 3.2559,39.9865 3.5259,40.2205 C3.6069,40.2905 3.7579,40.2805 3.8779,40.3075 L3.8689,40.2965 C3.9509,40.4735 4.0179,40.6605 4.1199,40.8255 C4.2959,41.1085 4.2299,41.3995 3.9039,41.4335 C3.3949,41.4875 2.8719,41.4905 2.3619,41.4435 C2.0169,41.4125 1.9469,41.1445 2.1119,40.8025 C2.1589,40.7055 2.1669,40.5895 2.1929,40.4815 C2.1009,40.5125 2.0019,40.5315 1.9159,40.5755 C1.3919,40.8515 0.7859,40.4875 0.7819,39.8905 C0.7809,39.7175 0.8219,39.5335 0.7749,39.3745 C0.6479,38.9495 1.0229,38.7065 1.1049,38.3615 C1.4249,38.4545 1.7439,38.5495 2.0649,38.6385 C2.1029,38.6495 2.1839,38.6315 2.1889,38.6135 C2.2069,38.5455 2.2179,38.4665 2.1979,38.4025 C2.1499,38.2425 2.0369,38.0895 2.0339,37.9315 C2.0279,37.6185 1.8909,37.5085 1.5989,37.5395 C1.4439,37.5555 1.2879,37.5675 1.1329,37.5815" id="Fill-13" fill="#000000"></path>
                    <path d="M3.8766,34.0881 C3.8736,33.6661 3.8696,33.2441 3.8676,32.8211 C3.8666,32.5911 3.9656,32.4831 4.2126,32.4971 C4.5256,32.5131 4.8406,32.5141 5.1526,32.4961 C5.4046,32.4821 5.4896,32.5951 5.4856,32.8241 C5.4776,33.2461 5.4746,33.6681 5.4696,34.0911 L5.4806,34.0781 C4.9436,34.0791 4.4056,34.0791 3.8676,34.0791 L3.8766,34.0881 Z" id="Fill-15" fill="#000000"></path>
                    <path d="M7.0711,37.1879 C7.0711,37.7259 7.0711,38.2639 7.0721,38.8029 L7.0841,38.7899 C6.5461,38.7909 6.0081,38.7909 5.4701,38.7909 L5.4811,38.8019 C5.4771,38.2639 5.4731,37.7259 5.4691,37.1879 C6.0071,37.1919 6.5461,37.1959 7.0841,37.1989 L7.0711,37.1879 Z" id="Fill-17" fill="#000000"></path>
                    <path d="M5.481,40.2963 C4.943,40.2963 4.406,40.2963 3.868,40.2963 L3.878,40.3073 C3.878,39.8023 3.878,39.2963 3.878,38.7913 L3.868,38.8003 C4.406,38.8013 4.943,38.8013 5.481,38.8013 L5.47,38.7903 L5.47,40.3083 L5.481,40.2963 Z" id="Fill-19" fill="#000000"></path>
                    <path d="M8.5808,37.2058 C9.1158,37.2058 9.6508,37.2068 10.1868,37.2068 L10.1748,37.1948 C10.1758,37.7278 10.1768,38.2598 10.1788,38.7928 L10.1898,38.7808 C9.7878,38.7768 9.3858,38.7708 8.9828,38.7688 C8.7348,38.7678 8.6138,38.6498 8.6118,38.3998 C8.6088,37.9978 8.5998,37.5958 8.5938,37.1928 L8.5808,37.2058 Z" id="Fill-21" fill="#000000"></path>
                    <path d="M5.4697,34.0906 C6.0077,34.0906 6.5457,34.0906 7.0847,34.0916 L7.0717,34.0776 L7.0717,35.5966 L7.0837,35.5846 C6.5457,35.5876 6.0077,35.5916 5.4687,35.5946 C5.4727,35.0896 5.4767,34.5836 5.4807,34.0786 L5.4697,34.0906 Z" id="Fill-23" fill="#000000"></path>
                    <path d="M10.9657,32.4999 C11.7637,32.4999 11.7807,32.5159 11.7747,33.2979 C11.7707,33.9789 11.6807,34.0669 10.9837,34.0689 C10.9217,34.0689 10.8587,34.0699 10.7967,34.0669 C10.2457,34.0419 10.2027,33.9969 10.1877,33.4319 C10.1857,33.3859 10.1857,33.3389 10.1867,33.2919 C10.2087,32.3199 10.1927,32.5349 10.9657,32.4999" id="Fill-25" fill="#000000"></path>
                    <path d="M10.1865,37.2067 C10.1895,36.8317 10.2015,36.4557 10.1915,36.0807 C10.1815,35.7627 10.3325,35.6237 10.6355,35.6177 C10.6985,35.6167 10.7615,35.6097 10.8235,35.6067 C11.6725,35.5737 11.8095,35.7097 11.7745,36.5537 C11.7495,37.1357 11.7045,37.1817 11.1125,37.1927 C10.8005,37.1987 10.4875,37.1947 10.1745,37.1947 L10.1865,37.2067 Z" id="Fill-27" fill="#000000"></path>
                    <path d="M14.1549,32.4999 C14.8349,32.5029 14.8979,32.5739 14.8919,33.3159 C14.8859,33.9349 14.7489,34.0619 14.0879,34.0569 C13.4959,34.0519 13.3199,33.8669 13.3249,33.2509 C13.3289,32.6019 13.4449,32.4969 14.1549,32.4999" id="Fill-29" fill="#000000"></path>
                    <path d="M14.8915,36.4081 C14.8915,37.1121 14.8165,37.1861 14.1055,37.1851 C13.4565,37.1841 13.3285,37.0601 13.3245,36.4231 C13.3205,35.7931 13.5025,35.6121 14.1365,35.6181 C14.7695,35.6241 14.8915,35.7521 14.8915,36.4081" id="Fill-31" fill="#000000"></path>
                    <path d="M8.5937,37.1933 C8.0857,37.1913 7.5787,37.1893 7.0707,37.1883 L7.0837,37.1993 C7.0837,36.6613 7.0837,36.1233 7.0837,35.5853 L7.0717,35.5963 C7.5787,35.5963 8.0847,35.5963 8.5907,35.5963 L8.5777,35.5853 C8.5787,36.1253 8.5797,36.6653 8.5807,37.2063 L8.5937,37.1933 Z" id="Fill-33" fill="#000000"></path>
                    <path d="M7.0844,34.0914 C7.0784,33.6684 7.0744,33.2464 7.0664,32.8234 C7.0624,32.5904 7.1604,32.4764 7.4064,32.5004 C7.5304,32.5124 7.6564,32.5004 7.7824,32.5004 C8.6444,32.4994 8.6454,32.4994 8.6194,33.3854 C8.6124,33.6204 8.5914,33.8544 8.5774,34.0894 L8.5904,34.0784 C8.0844,34.0784 7.5784,34.0784 7.0724,34.0784 L7.0844,34.0914 Z" id="Fill-35" fill="#000000"></path>
                    <path d="M8.5774,34.0892 C8.9984,34.0882 9.4204,34.0902 9.8414,34.0842 C10.0724,34.0802 10.1754,34.1742 10.1804,34.4162 C10.2034,35.7302 10.3324,35.6142 9.0454,35.6032 C8.8894,35.6022 8.7334,35.5922 8.5774,35.5852 L8.5904,35.5972 C8.5904,35.0902 8.5904,34.5842 8.5904,34.0782 L8.5774,34.0892 Z" id="Fill-37" fill="#000000"></path>
                    <path d="M10.1784,38.7929 C10.5684,38.7939 10.9584,38.7999 11.3484,38.7949 C11.6224,38.7919 11.7244,38.9359 11.7634,39.1909 C11.9104,40.1499 11.7244,40.3639 10.7524,40.3169 C10.5654,40.3089 10.3784,40.2989 10.1904,40.2889 L10.2034,40.3009 C10.1984,39.7939 10.1944,39.2879 10.1894,38.7809 L10.1784,38.7929 Z" id="Fill-39" fill="#000000"></path>
                    <path d="M12.5379,37.1974 C13.2679,37.1974 13.3039,37.2324 13.3079,37.9574 C13.3109,38.6914 13.2289,38.7774 12.5239,38.7744 C11.8549,38.7714 11.7779,38.6874 11.7799,37.9664 C11.7819,37.2334 11.8169,37.1974 12.5379,37.1974" id="Fill-41" fill="#000000"></path>
                    <path d="M14.8915,39.5633 C14.8905,40.2183 14.7975,40.3073 14.1185,40.3083 C13.4635,40.3093 13.3265,40.1793 13.3245,39.5593 C13.3225,38.9133 13.4595,38.7853 14.1465,38.7903 C14.8025,38.7963 14.8925,38.8893 14.8915,39.5633" id="Fill-43" fill="#000000"></path>
                    <path d="M12.5184,35.6014 C11.8244,35.5984 11.7744,35.5444 11.7794,34.8024 C11.7844,34.1184 11.8314,34.0734 12.5424,34.0734 C13.2594,34.0734 13.3094,34.1234 13.3074,34.8494 C13.3054,35.5534 13.2524,35.6044 12.5184,35.6014" id="Fill-45" fill="#000000"></path>
                    <path d="M7.0717,38.8024 C7.4607,38.7964 7.8487,38.7914 8.2377,38.7834 C8.4917,38.7774 8.5727,38.9094 8.6037,39.1514 C8.7437,40.2144 8.5877,40.3964 7.5407,40.3324 C7.3847,40.3234 7.2297,40.3074 7.0747,40.2954 L7.0837,40.3084 L7.0837,38.7904 L7.0717,38.8024 Z" id="Fill-47" fill="#000000"></path>
                    <path d="M15.6978,37.2053 C16.1338,37.2073 16.4728,37.5523 16.4698,37.9923 C16.4668,38.4373 16.1238,38.7683 15.6698,38.7633 C15.2298,38.7583 14.9078,38.4183 14.9118,37.9633 C14.9158,37.5263 15.2498,37.2033 15.6978,37.2053" id="Fill-49" fill="#000000"></path>
                    <path d="M14.9115,34.8347 C14.9125,34.3707 15.2155,34.0817 15.6985,34.0837 C16.1775,34.0867 16.4765,34.3887 16.4695,34.8637 C16.4635,35.2927 16.1475,35.5897 15.6935,35.5907 C15.2105,35.5927 14.9105,35.3027 14.9115,34.8347" id="Fill-51" fill="#000000"></path>
                    <path d="M18.8012,37.2116 C19.1542,37.2066 19.5842,37.6046 19.5932,37.9426 C19.6032,38.3406 19.2032,38.7576 18.8142,38.7546 C18.4902,38.7526 18.0562,38.3266 18.0502,38.0046 C18.0432,37.6526 18.4562,37.2166 18.8012,37.2116" id="Fill-53" fill="#000000"></path>
                    <path d="M7.0743,40.2952 C7.0803,40.5602 7.0823,40.8252 7.0943,41.0902 C7.1063,41.3582 7.0053,41.5012 6.7153,41.4892 C6.4183,41.4772 6.1203,41.4762 5.8243,41.4902 C5.5303,41.5042 5.4333,41.3652 5.4503,41.0932 C5.4673,40.8282 5.4713,40.5622 5.4813,40.2962 L5.4703,40.3082 C6.0083,40.3082 6.5463,40.3082 7.0843,40.3082 L7.0743,40.2952 Z" id="Fill-55" fill="#000000"></path>
                    <path d="M10.1907,40.2893 C10.1917,40.5703 10.1827,40.8513 10.1967,41.1313 C10.2107,41.3973 10.0947,41.5003 9.8377,41.4893 C9.6187,41.4793 9.3977,41.5053 9.1807,41.4823 C8.9927,41.4623 8.6647,41.4233 8.6497,41.3443 C8.5957,41.0633 8.6257,40.7583 8.6777,40.4713 C8.6907,40.4023 8.9087,40.3383 9.0367,40.3293 C9.4247,40.3043 9.8137,40.3083 10.2027,40.3003 L10.1907,40.2893 Z" id="Fill-57" fill="#000000"></path>
                    <path d="M18.005,36.4188 C18.002,36.8318 17.647,37.1818 17.237,37.1788 C16.843,37.1748 16.5,36.8008 16.506,36.3818 C16.512,36.0018 16.88,35.6288 17.251,35.6278 C17.648,35.6258 18.008,36.0048 18.005,36.4188" id="Fill-59" fill="#000000"></path>
                    <path d="M18.0051,33.2861 C18.0011,33.6981 17.6311,34.0571 17.2211,34.0471 C16.8661,34.0391 16.5051,33.6431 16.5061,33.2641 C16.5081,32.8451 16.8541,32.4981 17.2661,32.5001 C17.6601,32.5021 18.0091,32.8741 18.0051,33.2861" id="Fill-61" fill="#000000"></path>
                    <path d="M18.8268,35.5824 C18.4458,35.5834 18.0448,35.1904 18.0498,34.8214 C18.0548,34.4824 18.4588,34.0954 18.8118,34.0924 C19.1898,34.0894 19.5918,34.4684 19.5938,34.8294 C19.5948,35.1964 19.2028,35.5814 18.8268,35.5824" id="Fill-63" fill="#000000"></path>
                    <path d="M19.6345,36.4196 C19.6325,36.0906 20.0755,35.6376 20.3985,35.6386 C20.6905,35.6396 21.1595,36.0986 21.1665,36.3886 C21.1735,36.7106 20.7275,37.1676 20.4025,37.1706 C20.0815,37.1736 19.6355,36.7376 19.6345,36.4196" id="Fill-65" fill="#000000"></path>
                    <path d="M20.4398,32.5045 C20.7258,32.5155 21.1698,32.9865 21.1668,33.2755 C21.1628,33.5905 20.6778,34.0485 20.3618,34.0355 C20.0408,34.0225 19.6228,33.5525 19.6348,33.2175 C19.6458,32.9095 20.1168,32.4925 20.4398,32.5045" id="Fill-67" fill="#000000"></path>
                    <path d="M19.6347,39.48 C19.6497,39.186 20.1117,38.8 20.4357,38.811 C20.7747,38.822 21.1917,39.284 21.1647,39.619 C21.1417,39.915 20.6667,40.302 20.3437,40.288 C19.9917,40.273 19.6157,39.845 19.6347,39.48" id="Fill-69" fill="#000000"></path>
                    <path d="M12.5158,41.4878 C12.4848,41.4878 12.4528,41.4878 12.4218,41.4878 C11.7538,41.4868 11.7138,41.4278 11.7888,40.7598 C11.8188,40.4908 11.9478,40.3688 12.1958,40.3418 C12.3198,40.3278 12.4458,40.3248 12.5698,40.3248 C13.2258,40.3278 13.4748,40.6508 13.2888,41.2818 C13.2638,41.3668 13.1278,41.4568 13.0298,41.4758 C12.8638,41.5068 12.6878,41.4838 12.5158,41.4838 L12.5158,41.4878 Z" id="Fill-71" fill="#000000"></path>
                    <path d="M17.2715,40.2988 C16.8505,40.3028 16.5045,39.9608 16.5065,39.5418 C16.5075,39.1398 16.8405,38.8038 17.2395,38.7998 C17.6615,38.7958 18.0065,39.1378 18.0055,39.5568 C18.0035,39.9588 17.6705,40.2958 17.2715,40.2988" id="Fill-73" fill="#000000"></path>
                    <path d="M21.9668,37.2225 C22.2538,37.2225 22.6958,37.6765 22.6978,37.9735 C22.6998,38.2915 22.2598,38.7275 21.9458,38.7185 C21.6668,38.7105 21.2358,38.2585 21.2378,37.9755 C21.2388,37.6775 21.6788,37.2225 21.9668,37.2225" id="Fill-75" fill="#000000"></path>
                    <path d="M21.9674,34.1069 C22.2954,34.1069 22.7014,34.5199 22.6984,34.8489 C22.6944,35.1689 22.2694,35.5749 21.9444,35.5679 C21.6604,35.5619 21.2404,35.1359 21.2374,34.8489 C21.2334,34.5209 21.6404,34.1069 21.9674,34.1069" id="Fill-77" fill="#000000"></path>
                    <path d="M24.2852,39.5385 C24.2902,39.7875 23.7932,40.2685 23.5312,40.2665 C23.3142,40.2655 22.8442,39.8065 22.8312,39.5835 C22.8162,39.3285 23.2512,38.8455 23.5092,38.8325 C23.7642,38.8195 24.2802,39.2885 24.2852,39.5385" id="Fill-79" fill="#000000"></path>
                    <path d="M15.6595,41.4878 C15.5965,41.4878 15.5315,41.4988 15.4725,41.4858 C15.2885,41.4448 14.9715,41.4268 14.9495,41.3408 C14.8895,41.0958 14.8305,40.8298 15.1395,40.6008 C15.5995,40.2618 15.8025,40.2548 16.2335,40.5998 C16.5195,40.8278 16.5215,41.0928 16.4235,41.3378 C16.3815,41.4418 16.0795,41.4468 15.8935,41.4848 C15.8185,41.5008 15.7375,41.4878 15.6595,41.4878" id="Fill-81" fill="#000000"></path>
                    <path d="M18.8285,41.4868 C18.7035,41.4868 18.5725,41.5088 18.4545,41.4808 C18.3185,41.4478 18.0865,41.3718 18.0855,41.3108 C18.0805,41.1178 18.1275,40.8998 18.2255,40.7338 C18.3175,40.5788 18.4805,40.4278 18.6465,40.3608 C18.9135,40.2528 19.5055,40.6138 19.5885,40.8898 C19.7055,41.2818 19.5655,41.4758 19.1575,41.4868 C19.0475,41.4898 18.9385,41.4868 18.8285,41.4868" id="Fill-83" fill="#000000"></path>
                    <path d="M24.2847,36.3995 C24.2857,36.6235 23.7537,37.1555 23.5297,37.1545 C23.3147,37.1535 22.8317,36.6315 22.8327,36.4005 C22.8337,36.1785 23.3087,35.7035 23.5307,35.7025 C23.7617,35.7015 24.2837,36.1845 24.2847,36.3995" id="Fill-85" fill="#000000"></path>
                    <path d="M24.2846,33.2911 C24.2766,33.5051 23.7386,33.9801 23.5146,33.9711 C23.2756,33.9631 22.8266,33.4931 22.8336,33.2591 C22.8406,33.0231 23.3306,32.5141 23.5456,32.5201 C23.7506,32.5261 24.2926,33.0911 24.2846,33.2911" id="Fill-87" fill="#000000"></path>
                    <path d="M21.9862,41.4925 C21.8462,41.4865 21.6982,41.5045 21.5672,41.4655 C21.4502,41.4305 21.2662,41.3385 21.2612,41.2635 C21.2522,41.1035 21.3082,40.9155 21.3982,40.7795 C21.5002,40.6265 21.6492,40.4675 21.8132,40.4025 C22.1162,40.2825 22.6622,40.7055 22.6982,41.0395 C22.7262,41.3005 22.6542,41.4695 22.3602,41.4745 C22.2362,41.4775 22.1112,41.4865 21.9862,41.4925" id="Fill-89" fill="#000000"></path>
                    <path d="M25.1819,35.3103 C24.7689,35.3063 24.6679,35.1763 24.6629,34.8063 C24.6589,34.4793 24.8249,34.3613 25.1229,34.3643 C25.4569,34.3683 25.5769,34.5123 25.5749,34.8683 C25.5729,35.1883 25.4089,35.3163 25.1819,35.3103" id="Fill-91" fill="#000000"></path>
                    <path d="M25.127,38.4383 C24.821,38.4573 24.665,38.3273 24.664,38.0013 C24.663,37.6943 24.767,37.5333 25.099,37.5333 C25.406,37.5333 25.573,37.6403 25.573,37.9673 C25.573,38.2723 25.455,38.4483 25.127,38.4383" id="Fill-93" fill="#000000"></path>
                    <path d="M28.2293,38.3761 C27.8973,38.4201 27.8443,38.2261 27.8443,37.9501 C27.8443,37.6641 27.9723,37.5771 28.2443,37.5731 C28.5483,37.5691 28.6553,37.6841 28.6563,37.9861 C28.6573,38.3011 28.5223,38.4101 28.2293,38.3761" id="Fill-95" fill="#000000"></path>
                    <path d="M25.1277,41.4838 C24.8587,41.5088 24.6667,41.4568 24.6647,41.1208 C24.6627,40.8078 24.7837,40.6558 25.1037,40.6558 C25.4097,40.6558 25.5697,40.7808 25.5727,41.1008 C25.5757,41.4168 25.4107,41.5168 25.1277,41.4838" id="Fill-97" fill="#000000"></path>
                    <path d="M28.6408,41.0942 C28.6918,41.4682 28.4728,41.4842 28.2108,41.4922 C27.9088,41.5022 27.8468,41.3522 27.8438,41.0912 C27.8398,40.8022 27.9688,40.7102 28.2398,40.7142 C28.5228,40.7172 28.7088,40.7862 28.6408,41.0942" id="Fill-99" fill="#000000"></path>
                    <path d="M27.0864,36.3627 C27.1204,36.6757 27.0214,36.8237 26.7054,36.8287 C26.3874,36.8327 26.2554,36.7207 26.2594,36.3947 C26.2624,36.0937 26.3814,35.9737 26.6774,35.9787 C26.9604,35.9847 27.1394,36.0667 27.0864,36.3627" id="Fill-101" fill="#000000"></path>
                    <path d="M28.2677,34.4448 C28.6047,34.3968 28.6477,34.5938 28.6547,34.8678 C28.6637,35.2098 28.4717,35.2338 28.2067,35.2398 C27.8997,35.2478 27.8507,35.0838 27.8447,34.8298 C27.8377,34.5208 27.9697,34.3978 28.2677,34.4448" id="Fill-103" fill="#000000"></path>
                    <path d="M26.6598,32.8605 C26.9948,32.8175 27.0968,32.9705 27.0988,33.2645 C27.0998,33.5525 27.0058,33.6935 26.6978,33.6975 C26.3758,33.7015 26.2518,33.5735 26.2608,33.2525 C26.2688,32.9535 26.3738,32.8065 26.6598,32.8605" id="Fill-105" fill="#000000"></path>
                    <path d="M5.481,35.5851 C5.481,36.1231 5.481,36.6611 5.481,37.1991 C4.943,37.1991 4.405,37.1991 3.867,37.1991 C3.867,36.6611 3.867,36.1231 3.867,35.5851 C4.405,35.5851 4.943,35.5851 5.481,35.5851" id="Fill-107" fill="#000000"></path>
                    <mask id="mask-2" fill="white">
                        <use xlink:href="#path-1"></use>
                    </mask>
                    <g id="Clip-110"></g>
                    <polygon id="Fill-109" fill="#000000" mask="url(#mask-2)" points="10.075 22.4019 73.555 22.4019 73.555 20.6929 10.075 20.6929"></polygon>
                    <path d="M77.7248,23.9332 C77.6418,23.9332 77.4298,23.9332 72.1788,23.3092 L71.0928,23.2042 L71.0928,19.8702 L72.1698,19.7582 C77.4288,19.0852 77.5458,19.0852 77.6338,19.0852 C78.9658,19.0852 80.0998,20.1732 80.0998,21.5092 C80.0998,22.8462 79.0628,23.9332 77.7248,23.9332" id="Fill-111" fill="#000000" mask="url(#mask-2)"></path>
                    <path d="M77.5215,22.9333 C78.3075,22.9333 79.0495,22.2953 79.0495,21.5093 C79.0495,20.7233 78.2675,20.0853 77.4815,20.0853 C77.4405,20.0853 72.0925,20.7503 72.0925,20.7503 L72.0925,22.3163 C72.0925,22.3163 77.4885,22.9333 77.5215,22.9333" id="Fill-112" fill="#000000" mask="url(#mask-2)"></path>
                    <path d="M79.8327,9.686 C79.6357,9.315 79.0357,8.652 78.7357,8.103 C78.4897,7.651 78.3547,7.031 78.2417,6.64 C78.1887,6.455 77.9287,6.453 77.8707,6.636 C77.7357,7.062 77.6157,7.549 77.3457,8.064 C76.8837,8.945 76.3737,9.499 76.2457,9.866 C76.2437,9.87 76.2457,9.874 76.2457,9.877 C76.1027,10.159 76.0207,10.476 76.0207,10.812 C76.0207,11.957 76.9487,12.885 78.0937,12.885 C79.2387,12.885 80.1667,11.957 80.1667,10.812 C80.1667,10.397 80.0437,10.01 79.8327,9.686 Z" id="Stroke-113" stroke="#000000" mask="url(#mask-2)"></path>
                    <polygon id="Stroke-114" stroke="#000000" mask="url(#mask-2)" points="0.5 26.2999 10.044 26.2999 10.044 16.8449 0.5 16.8449"></polygon>
                    <path d="M73.8327,3.686 C73.6357,3.315 73.0357,2.652 72.7357,2.103 C72.4897,1.651 72.3547,1.031 72.2417,0.64 C72.1887,0.455 71.9287,0.453 71.8707,0.636 C71.7357,1.062 71.6157,1.549 71.3457,2.064 C70.8837,2.945 70.3737,3.499 70.2457,3.866 C70.2437,3.87 70.2457,3.874 70.2457,3.877 C70.1027,4.159 70.0207,4.476 70.0207,4.812 C70.0207,5.957 70.9487,6.885 72.0937,6.885 C73.2387,6.885 74.1667,5.957 74.1667,4.812 C74.1667,4.397 74.0437,4.01 73.8327,3.686 Z" id="Stroke-115" stroke="#000000" mask="url(#mask-2)"></path>
                </g>
            </g>
        </g>
    </g>
</svg>